<svg width="20" height="17" viewBox="0 0 20 17" fill="none" xmlns="http://www.w3.org/2000/svg">
<path id="Vector" d="M8.45455 2.5H18.5M8.45455 2.5C8.45455 2.89782 8.29172 3.27936 8.00189 3.56066C7.71206 3.84196 7.31897 4 6.90909 4C6.49921 4 6.10612 3.84196 5.81629 3.56066C5.52646 3.27936 5.36364 2.89782 5.36364 2.5M8.45455 2.5C8.45455 2.10218 8.29172 1.72064 8.00189 1.43934C7.71206 1.15804 7.31897 1 6.90909 1C6.49921 1 6.10612 1.15804 5.81629 1.43934C5.52646 1.72064 5.36364 2.10218 5.36364 2.5M5.36364 2.5H1.5M8.45455 14.5H18.5M8.45455 14.5C8.45455 14.8978 8.29172 15.2794 8.00189 15.5607C7.71206 15.842 7.31897 16 6.90909 16C6.49921 16 6.10612 15.842 5.81629 15.5607C5.52646 15.2794 5.36364 14.8978 5.36364 14.5M8.45455 14.5C8.45455 14.1022 8.29172 13.7206 8.00189 13.4393C7.71206 13.158 7.31897 13 6.90909 13C6.49921 13 6.10612 13.158 5.81629 13.4393C5.52646 13.7206 5.36364 14.1022 5.36364 14.5M5.36364 14.5H1.5M14.6364 8.5H18.5M14.6364 8.5C14.6364 8.89782 14.4735 9.27936 14.1837 9.56066C13.8939 9.84196 13.5008 10 13.0909 10C12.681 10 12.2879 9.84196 11.9981 9.56066C11.7083 9.27936 11.5455 8.89782 11.5455 8.5M14.6364 8.5C14.6364 8.10218 14.4735 7.72064 14.1837 7.43934C13.8939 7.15804 13.5008 7 13.0909 7C12.681 7 12.2879 7.15804 11.9981 7.43934C11.7083 7.72064 11.5455 8.10218 11.5455 8.5M11.5455 8.5H1.5" stroke="black" stroke-width="1.5" stroke-linecap="round" stroke-linejoin="round"/>
</svg>
