<svg width="128" height="6" viewBox="0 0 128 6" fill="none" xmlns="http://www.w3.org/2000/svg">
<path d="M0.330892 2.74597C0.330892 4.21873 1.5248 5.41264 2.99756 5.41264C4.47032 5.41264 5.66423 4.21873 5.66423 2.74597C5.66423 1.27321 4.47032 0.079305 2.99756 0.079305C1.5248 0.079305 0.330892 1.27321 0.330892 2.74597ZM122.334 2.74597C122.334 4.21873 123.528 5.41264 125.001 5.41264C126.473 5.41264 127.667 4.21873 127.667 2.74597C127.667 1.27321 126.473 0.079305 125.001 0.079305C123.528 0.079305 122.334 1.27321 122.334 2.74597ZM2.99756 2.74597V3.24597H3.98145V2.74597V2.24597H2.99756V2.74597ZM5.94924 2.74597V3.24597H7.91703V2.74597V2.24597H5.94924V2.74597ZM9.88482 2.74597V3.24597H11.8526V2.74597V2.24597H9.88482V2.74597ZM13.8204 2.74597V3.24597H15.7882V2.74597V2.24597H13.8204V2.74597ZM17.756 2.74597V3.24597H19.7238V2.74597V2.24597H17.756V2.74597ZM21.6916 2.74597V3.24597H23.6594V2.74597V2.24597H21.6916V2.74597ZM25.6271 2.74597V3.24597H27.5949V2.74597V2.24597H25.6271V2.74597ZM29.5627 2.74597V3.24597H31.5305V2.74597V2.24597H29.5627V2.74597ZM33.4983 2.74597V3.24597H35.4661V2.74597V2.24597H33.4983V2.74597ZM37.4339 2.74597V3.24597H39.4017V2.74597V2.24597H37.4339V2.74597ZM41.3695 2.74597V3.24597H43.3372V2.74597V2.24597H41.3695V2.74597ZM45.305 2.74597V3.24597H47.2728V2.74597V2.24597H45.305V2.74597ZM49.2406 2.74597V3.24597H51.2084V2.74597V2.24597H49.2406V2.74597ZM53.1762 2.74597V3.24597H55.144V2.74597V2.24597H53.1762V2.74597ZM57.1118 2.74597V3.24597H59.0796V2.74597V2.24597H57.1118V2.74597ZM61.0473 2.74597V3.24597H63.0151V2.74597V2.24597H61.0473V2.74597ZM64.9829 2.74597V3.24597H66.9507V2.74597V2.24597H64.9829V2.74597ZM68.9185 2.74597V3.24597H70.8863V2.74597V2.24597H68.9185V2.74597ZM72.8541 2.74597V3.24597H74.8219V2.74597V2.24597H72.8541V2.74597ZM76.7897 2.74597V3.24597H78.7574V2.74597V2.24597H76.7897V2.74597ZM80.7252 2.74597V3.24597H82.693V2.74597V2.24597H80.7252V2.74597ZM84.6608 2.74597V3.24597H86.6286V2.74597V2.24597H84.6608V2.74597ZM88.5964 2.74597V3.24597H90.5642V2.74597V2.24597H88.5964V2.74597ZM92.532 2.74597V3.24597H94.4998V2.74597V2.24597H92.532V2.74597ZM96.4675 2.74597V3.24597H98.4353V2.74597V2.24597H96.4675V2.74597ZM100.403 2.74597V3.24597H102.371V2.74597V2.24597H100.403V2.74597ZM104.339 2.74597V3.24597H106.306V2.74597V2.24597H104.339V2.74597ZM108.274 2.74597V3.24597H110.242V2.74597V2.24597H108.274V2.74597ZM112.21 2.74597V3.24597H114.178V2.74597V2.24597H112.21V2.74597ZM116.145 2.74597V3.24597H118.113V2.74597V2.24597H116.145V2.74597ZM120.081 2.74597V3.24597H122.049V2.74597V2.24597H120.081V2.74597ZM124.017 2.74597V3.24597H125.001V2.74597V2.24597H124.017V2.74597Z" fill="#625858"/>
</svg>
